name Walk8.mot
datacolumns 19
datarows 17
range 1.16000000 1.17600000
endheader

                time	   L_ground_force_vx	   L_ground_force_vy	   L_ground_force_vz	   L_ground_force_px	   L_ground_force_py	   L_ground_force_pz	   R_ground_force_vx	   R_ground_force_vy	   R_ground_force_vz	   R_ground_force_px	   R_ground_force_py	   R_ground_force_pz	   L_ground_torque_x	   L_ground_torque_y	   L_ground_torque_z	   R_ground_torque_x	   R_ground_torque_y	   R_ground_torque_z	
          1.16000000	          0.00000000	          0.00000000	          0.00000000	          0.00000000	          0.00000000	          0.00000000	          0.00000000	          0.00000000	          0.00000000	          0.00000000	          0.00000000	          0.00000000	          0.00000000	          0.00000000	          0.00000000	          0.00000000	          0.00000000	          0.00000000	
          1.16100000	          0.00000000	          0.00000000	          0.00000000	          0.00000000	          0.00000000	          0.00000000	          0.00000000	          0.00000000	          0.00000000	          0.00000000	          0.00000000	          0.00000000	          0.00000000	          0.00000000	          0.00000000	          0.00000000	          0.00000000	          0.00000000	
          1.16200000	          0.00000000	          0.00000000	          0.00000000	          0.00000000	          0.00000000	          0.00000000	          0.00000000	          0.00000000	          0.00000000	          0.00000000	          0.00000000	          0.00000000	          0.00000000	          0.00000000	          0.00000000	          0.00000000	          0.00000000	          0.00000000	
          1.16300000	          0.00000000	          0.00000000	          0.00000000	          0.00000000	          0.00000000	          0.00000000	          0.00000000	          0.00000000	          0.00000000	          0.00000000	          0.00000000	          0.00000000	          0.00000000	          0.00000000	          0.00000000	          0.00000000	          0.00000000	          0.00000000	
          1.16400000	          0.00000000	          0.00000000	          0.00000000	          0.00000000	          0.00000000	          0.00000000	          0.00000000	          0.00000000	          0.00000000	          0.00000000	          0.00000000	          0.00000000	          0.00000000	          0.00000000	          0.00000000	          0.00000000	          0.00000000	          0.00000000	
          1.16500000	          0.00000000	          0.00000000	          0.00000000	          0.00000000	          0.00000000	          0.00000000	          0.00000000	          0.00000000	          0.00000000	          0.00000000	          0.00000000	          0.00000000	          0.00000000	          0.00000000	          0.00000000	          0.00000000	          0.00000000	          0.00000000	
          1.16600000	          3.35647206	         13.26588600	         -2.85001647	         -0.30040164	          0.00000000	         -0.03200163	          0.00000000	          0.00000000	          0.00000000	          0.00000000	          0.00000000	          0.00000000	          0.00000000	         -0.03038139	          0.00000000	          0.00000000	          0.00000000	          0.00000000	
          1.16700000	          5.23213215	         26.45086774	         -4.30294389	         -0.29880510	          0.00000000	         -0.03011530	          0.00000000	          0.00000000	          0.00000000	          0.00000000	          0.00000000	          0.00000000	          0.00000000	         -0.01672400	          0.00000000	          0.00000000	          0.00000000	          0.00000000	
          1.16800000	          7.41535207	         45.64132679	         -5.84831267	         -0.29780428	          0.00000000	         -0.02882221	          0.00000000	          0.00000000	          0.00000000	          0.00000000	          0.00000000	          0.00000000	          0.00000000	          0.00724667	          0.00000000	          0.00000000	          0.00000000	          0.00000000	
          1.16900000	          9.94977932	         72.03126648	         -7.44831235	         -0.29726591	          0.00000000	         -0.02783645	          0.00000000	          0.00000000	          0.00000000	          0.00000000	          0.00000000	          0.00000000	          0.00000000	          0.03825437	          0.00000000	          0.00000000	          0.00000000	          0.00000000	
          1.17000000	         12.83404705	        105.88818908	         -9.09600606	         -0.29699336	          0.00000000	         -0.02710019	          0.00000000	          0.00000000	          0.00000000	          0.00000000	          0.00000000	          0.00000000	          0.00000000	          0.07859726	          0.00000000	          0.00000000	          0.00000000	          0.00000000	
          1.17100000	         15.91175375	        145.66965322	        -10.78806892	         -0.29681452	          0.00000000	         -0.02664408	          0.00000000	          0.00000000	          0.00000000	          0.00000000	          0.00000000	          0.00000000	          0.00000000	          0.12872873	          0.00000000	          0.00000000	          0.00000000	          0.00000000	
          1.17200000	         18.86619483	        187.74725745	        -12.52557482	         -0.29665268	          0.00000000	         -0.02641198	          0.00000000	          0.00000000	          0.00000000	          0.00000000	          0.00000000	          0.00000000	          0.00000000	          0.18257982	          0.00000000	          0.00000000	          0.00000000	          0.00000000	
          1.17300000	         21.27173106	        227.11372489	        -14.30567315	         -0.29645912	          0.00000000	         -0.02624735	          0.00000000	          0.00000000	          0.00000000	          0.00000000	          0.00000000	          0.00000000	          0.00000000	          0.23412469	          0.00000000	          0.00000000	          0.00000000	          0.00000000	
          1.17400000	         22.67559606	        258.93953625	        -16.11546443	         -0.29620056	          0.00000000	         -0.02603458	          0.00000000	          0.00000000	          0.00000000	          0.00000000	          0.00000000	          0.00000000	          0.00000000	          0.28096692	          0.00000000	          0.00000000	          0.00000000	          0.00000000	
          1.17500000	         22.73447449	        280.17285728	        -17.93763950	         -0.29589592	          0.00000000	         -0.02577350	          0.00000000	          0.00000000	          0.00000000	          0.00000000	          0.00000000	          0.00000000	          0.00000000	          0.32118033	          0.00000000	          0.00000000	          0.00000000	          0.00000000	
          1.17600000	         21.34717333	        290.33088174	        -19.74544006	         -0.29559134	          0.00000000	         -0.02552647	          0.00000000	          0.00000000	          0.00000000	          0.00000000	          0.00000000	          0.00000000	          0.00000000	          0.35450712	          0.00000000	          0.00000000	          0.00000000	          0.00000000	
